PathFileType	4	(X/Y/Z)	C:/Users/opensim2020/Desktop/walking_exp_matlab/subject02_walking07_straight_03.trc	
DataRate	CameraRate	NumFrames	NumMarkers	Units	OrigDataRate	OrigDataStartFrame	OrigNumFrames	
100.00	100.00	4	50	mm	100.00	2170	203	
Frame#	Time	LFHD			RFHD			LBHD			RBHD			C7			T10			CLAV			STRN			RBAK			LSHO			LUPA			LELB			LFRM			LWRA			LWRB			LFIN			RSHO			RUPA			RELB			RFRM			RWRA			RWRB			RFIN			LASI			RASI			LPSI			RPSI			LTHI			LKNE			LTIB			LANK			LHEE			LTOE			RTHI			RKNE			RTIB			RANK			RHEE			RTOE			*39			*40			*41			*42			*43			*44			*45			*46			*47			*48			*49			
		X1	Y1	Z1	X2	Y2	Z2	X3	Y3	Z3	X4	Y4	Z4	X5	Y5	Z5	X6	Y6	Z6	X7	Y7	Z7	X8	Y8	Z8	X9	Y9	Z9	X10	Y10	Z10	X11	Y11	Z11	X12	Y12	Z12	X13	Y13	Z13	X14	Y14	Z14	X15	Y15	Z15	X16	Y16	Z16	X17	Y17	Z17	X18	Y18	Z18	X19	Y19	Z19	X20	Y20	Z20	X21	Y21	Z21	X22	Y22	Z22	X23	Y23	Z23	X24	Y24	Z24	X25	Y25	Z25	X26	Y26	Z26	X27	Y27	Z27	X28	Y28	Z28	X29	Y29	Z29	X30	Y30	Z30	X31	Y31	Z31	X32	Y32	Z32	X33	Y33	Z33	X34	Y34	Z34	X35	Y35	Z35	X36	Y36	Z36	X37	Y37	Z37	X38	Y38	Z38	X39	Y39	Z39	X40	Y40	Z40	X41	Y41	Z41	X42	Y42	Z42	X43	Y43	Z43	X44	Y44	Z44	X45	Y45	Z45	X46	Y46	Z46	X47	Y47	Z47	X48	Y48	Z48	X49	Y49	Z49	X50	Y50	Z50	

178	1.770	1355.63916	725.21747	1766.61597	1497.02405	747.14844	1750.12415	1360.16199	621.77948	1657.04016	1501.17114	631.91907	1635.36780	1429.96997	600.53638	1527.74048	1433.45532	562.79248	1251.44116	1410.12402	743.26050	1467.57300	1418.78088	805.00311	1297.97095	1495.36389	555.94153	1353.39661	1244.04346	665.75043	1503.32019	1159.51526	684.78271	1301.59326	1146.07117	712.14056	1163.06665	1136.43542	758.39899	1038.90088	1177.34692	841.84338	933.72833	1138.66052	802.00085	923.93018	1138.28943	838.24396	868.24182	1610.44421	693.81616	1500.46521	1694.63721	684.62085	1306.41162	1712.21545	714.45581	1163.42651	1731.90588	756.48682	1051.24109	1707.83276	812.06952	927.54816	1748.57007	772.26172	922.77417	1743.71802	811.67029	860.06671	1290.09021	796.61670	1000.30682	1544.35950	803.22083	986.18695	1374.71606	588.70068	1037.96814	1489.72949	586.38727	1034.79309	1252.68164	741.65491	680.50104	1295.66296	715.10870	479.51871	1310.97632	661.33789	291.30234	1362.08240	668.70679	71.63491	1417.23401	636.57977	44.68246	1340.05164	823.24048	39.42739	1629.40906	787.37042	685.10590	1612.58655	828.14191	489.62555	1612.10132	709.97174	348.51611	1578.39270	609.83307	184.42456	1515.97876	566.01416	144.47755	1620.72485	708.63190	66.29662	1457.82690	619.51331	1799.99524	-3357.38184	2845.87524	1034.06226																											 
179	1.780	1355.02087	734.36884	1766.81665	1496.41968	756.57446	1750.30615	1359.76501	630.92627	1657.37756	1500.77832	641.14996	1635.78284	1429.32251	609.38397	1528.10278	1433.11890	571.01654	1252.04431	1409.60461	752.06262	1467.83691	1417.77673	813.40216	1298.03613	1494.60889	564.38489	1353.78345	1243.51733	674.63837	1504.07788	1158.28430	696.04071	1303.25317	1144.42993	726.41309	1165.10986	1135.43323	775.63147	1041.98242	1176.66052	861.82294	939.12988	1137.78540	822.43469	928.29559	1137.56262	860.10468	873.70856	1609.93018	702.73474	1500.43335	1694.45496	691.68121	1306.77966	1712.06738	719.70203	1163.46667	1731.99902	760.03815	1050.64404	1708.53149	814.18396	926.26538	1749.01782	774.06738	922.06146	1744.54736	812.86108	858.83716	1288.51062	802.54303	1000.11829	1542.29858	812.00275	987.13568	1375.47107	596.51355	1038.06946	1490.50854	594.64362	1035.74890	1252.52869	745.40869	680.04095	1296.15491	718.05914	479.38541	1311.04639	663.21942	291.45761	1362.33093	668.88641	71.73716	1417.44714	636.48212	44.84349	1339.83801	823.27411	39.24189	1628.87695	800.39459	687.29974	1611.36108	844.09479	491.75323	1612.87366	731.75488	345.37393	1580.79468	637.79956	177.13405	1519.04480	594.69421	134.86224	1621.53760	742.57568	63.83579	1457.64099	629.08710	1800.38013	-3360.26440	2845.18066	1033.97803																											 
180	1.790	1354.54187	743.59509	1766.92725	1495.82068	766.01624	1750.42896	1359.39587	640.08356	1657.60608	1500.47424	650.39496	1636.09045	1429.04785	618.48743	1528.53601	1432.65430	579.22382	1252.36267	1409.16101	760.91309	1467.96863	1416.74695	821.78864	1298.00378	1494.12305	573.03113	1354.26147	1243.30298	683.76990	1504.95679	1157.82605	708.31421	1304.81714	1143.35449	740.73877	1167.21558	1134.43201	792.98621	1045.10889	1175.99719	881.51257	944.66602	1137.04102	842.47852	932.71558	1136.85144	881.62360	879.15387	1609.43640	711.66675	1500.24060	1693.89905	698.33221	1306.69971	1711.76819	724.86377	1163.30334	1732.14709	763.76508	1050.07996	1709.43408	816.78595	925.04395	1749.37500	776.00031	921.17896	1745.56177	814.26208	857.79614	1286.93433	808.67133	999.76563	1540.27271	820.82623	987.86237	1376.15540	603.71332	1038.32349	1491.30481	603.04126	1036.65479	1252.38867	749.36798	679.47314	1296.66724	721.33655	479.09622	1311.33215	664.96375	291.61588	1362.59534	669.06982	71.82386	1417.59338	636.48663	45.09527	1339.75574	823.46771	39.17942	1628.14429	812.89648	689.11755	1609.59949	859.46051	493.50262	1613.60010	753.51892	342.12930	1583.04956	666.21307	169.48668	1522.40686	623.93317	125.14040	1622.29065	777.17438	61.94790	1457.03455	638.45618	1800.69934	-3357.42871	2845.94727	1034.05237																											 
181	1.800	1354.03467	752.79242	1766.98962	1495.35962	775.55652	1750.42542	1359.21106	649.04291	1657.90479	1500.43677	659.86035	1636.35706	1428.69409	627.49255	1528.73364	1432.74084	587.64063	1252.94910	1408.68396	769.78131	1467.96973	1415.76257	830.24860	1297.85083	1493.50012	581.65546	1354.66870	1242.99268	692.87683	1505.60938	1156.83789	719.54724	1306.32507	1141.83618	754.56195	1169.17017	1133.26550	810.10999	1048.39563	1175.36584	900.81836	950.26178	1136.44702	862.24164	937.17828	1136.28040	902.66608	884.67572	1609.10950	720.66663	1500.00549	1693.44812	705.05688	1306.67151	1711.55518	730.20428	1163.01892	1732.50696	767.63220	1049.42859	1710.39954	819.42383	923.84399	1749.92505	778.26923	920.44055	1746.59167	815.99982	856.62598	1285.26758	814.58929	999.05090	1538.32300	829.71490	988.22815	1376.84631	610.93616	1038.47498	1492.14429	611.46069	1037.44849	1252.18433	753.61633	678.90430	1296.61560	723.88776	478.77991	1311.78125	666.55688	291.86765	1362.87292	669.29449	71.90793	1417.66711	636.41534	44.88425	1339.60962	823.52539	38.99456	1627.39148	824.99548	690.77362	1608.07947	874.31708	494.97052	1614.28406	775.06390	338.62683	1585.78809	695.29974	162.29773	1526.10083	653.93164	115.72736	1622.80859	812.17316	60.57547	1456.73315	648.00256	1800.78162																														 
